<svg
                  width="50"
                  height="49"
                  viewBox="0 0 50 49"
                  fill="none"
                  xmlns="http://www.w3.org/2000/svg"
                >
                  <path
                    d="M30.264 16.0377C30.2918 16.0392 30.3196 16.0418 30.3474 16.0452C30.6356 16.0789 30.8927 16.1978 31.0983 16.3966C31.1764 16.4724 31.2468 16.5595 31.3087 16.6583L31.3137 16.6659L31.3188 16.6741L31.332 16.6958C31.6043 17.1653 31.6614 17.7095 31.611 18.2854C31.5875 18.5466 31.544 18.8084 31.5004 19.0709C31.4785 19.2022 31.4566 19.334 31.4372 19.4657C31.2609 20.0212 31.0186 20.5559 30.6467 21.0538C30.3622 21.4348 30.0173 21.7578 29.5968 22.0138C29.1182 22.3016 28.6307 22.4333 28.1883 22.4258C28.1591 22.425 28.1298 22.4239 28.1009 22.4223C27.9572 22.4136 27.819 22.3898 27.6882 22.3519C27.1207 22.1872 26.6891 21.7514 26.5506 21.0925C26.4694 20.71 26.4891 20.3086 26.5932 19.8955C26.8729 18.8178 27.4256 17.828 28.3069 16.9669C28.5529 16.7215 28.8548 16.5008 29.1619 16.3262C29.2823 16.2588 29.4016 16.2035 29.5194 16.1596C29.6609 16.1073 29.8002 16.0714 29.935 16.052C30.048 16.0361 30.1577 16.0312 30.264 16.0377Z"
                    fill="#262626"
                  />
                  <path
                    d="M33.4466 21.5033C33.3739 21.4859 33.2976 21.4746 33.2184 21.47C33.1417 21.4655 33.062 21.467 32.9798 21.4746C32.8838 21.4836 32.7842 21.5014 32.6819 21.5279C32.6449 21.5374 32.6079 21.548 32.5704 21.5601C32.2537 21.6586 31.9244 21.8146 31.635 22.007C30.703 22.6177 30.0184 23.4194 29.5127 24.3411C29.2956 24.7387 29.1648 25.1503 29.1319 25.5676C29.0607 26.5101 29.645 27.1292 30.494 27.1985L30.5344 27.2019L30.5523 27.2028L30.5738 27.2037L30.5959 27.2045C30.8741 27.2125 31.1786 27.1629 31.4954 27.0481C31.5306 27.0356 31.5661 27.0224 31.6021 27.008C32.127 26.7963 32.5638 26.4661 32.9424 26.0568C33.5647 25.3771 33.9141 24.6099 34.1549 23.8738C34.3164 23.2921 34.3994 22.7772 34.2571 22.2947C34.2249 22.1883 34.1823 22.0914 34.13 22.0043C34.1137 21.9763 34.096 21.9498 34.0778 21.924C33.9248 21.7105 33.7085 21.5666 33.4466 21.5033Z"
                    fill="#262626"
                  />
                  <path
                    d="M17.6576 20.5402C17.6943 20.5398 17.7306 20.5406 17.7673 20.5429C17.8017 20.5448 17.8358 20.5482 17.8695 20.5527C18.0973 20.5822 18.3192 20.6648 18.5256 20.803C19.0038 21.1211 19.2865 21.5869 19.4717 22.1098C19.7273 22.8399 19.8637 23.6025 19.6247 24.4465L19.6179 24.4697C19.6121 24.4893 19.6063 24.5091 19.5999 24.5287C19.3676 25.2652 18.9157 25.8715 18.1129 26.2172C17.9762 26.2774 17.8391 26.3221 17.7028 26.3531C17.5116 26.3967 17.3212 26.4126 17.1367 26.4016C17 26.3936 16.8663 26.3705 16.7378 26.3334C16.4088 26.2384 16.1121 26.0502 15.8772 25.7768C15.393 25.2107 15.2793 24.4996 15.3482 23.7195C15.3686 23.4946 15.4066 23.2676 15.4446 23.0404C15.4658 22.9133 15.4871 22.7861 15.5053 22.6592C15.6553 22.2279 15.8379 21.8072 16.1306 21.4138C16.2843 21.2074 16.457 21.0359 16.6411 20.9011C16.9586 20.6682 17.3105 20.5448 17.6576 20.5402Z"
                    fill="#262626"
                  />
                  <path
                    d="M24.0585 15.7285C23.9281 15.6796 23.7911 15.6509 23.6495 15.6425C23.6055 15.6399 23.5606 15.6391 23.5154 15.6406C23.425 15.6429 23.3332 15.6535 23.2402 15.6717C23.2169 15.6762 23.1939 15.6815 23.1702 15.6868C22.9835 15.7311 22.7931 15.8072 22.603 15.9148C22.5793 15.9284 22.5556 15.9424 22.5315 15.9568C22.1618 16.178 21.871 16.4707 21.6239 16.7997C21.1412 17.4374 20.8245 18.1061 20.6315 18.7968C20.567 19.027 20.5162 19.2595 20.4773 19.4943C20.3699 20.1418 20.4496 20.7337 20.7685 21.2479C20.8167 21.3252 20.8689 21.3971 20.9252 21.4638C21.2186 21.8095 21.6202 22.0053 22.0614 22.0552C22.0966 22.0594 22.1318 22.0624 22.1674 22.0643C22.237 22.0685 22.308 22.0698 22.3788 22.0668C22.9819 22.0425 23.6266 21.7644 24.1548 21.2445C24.2289 21.1718 24.3012 21.0942 24.3701 21.0116C24.7346 20.5724 24.9684 20.0998 25.1073 19.5966C25.3421 18.6586 25.357 17.7665 25.0902 16.9285C24.9621 16.5222 24.7565 16.1662 24.4038 15.9144C24.2952 15.8349 24.18 15.7732 24.0585 15.7285Z"
                    fill="#262626"
                  />
                  <path
                    d="M25.0556 22.9088C25.0212 22.905 24.9871 22.9023 24.9519 22.9C24.8371 22.8932 24.72 22.8951 24.6011 22.9061C24.3477 22.9288 24.0862 22.9921 23.8072 23.1019C23.632 23.1719 23.4556 23.2598 23.2801 23.3654C22.7781 23.671 22.3724 24.066 22.0309 24.5192C21.2344 25.5742 20.2816 26.4478 19.0776 27.1093C17.8892 27.7633 17.0909 28.6967 16.8764 29.9251C16.6808 31.0414 17.1839 31.9858 18.157 32.3254C18.34 32.3906 18.5312 32.4368 18.7283 32.4621C18.7938 32.4708 18.8605 32.4773 18.9272 32.4814C19.1406 32.4939 19.3603 32.4837 19.5844 32.4489C20.0957 32.3713 20.6054 32.2733 21.1168 32.1749C21.2991 32.1399 21.4816 32.1048 21.6645 32.0706C21.9031 32.0267 22.132 32.0108 22.3528 32.024C22.5736 32.0373 22.7862 32.0797 22.9915 32.1505C23.1163 32.1954 23.2407 32.2414 23.3653 32.2874C23.6741 32.4014 23.9835 32.5155 24.2992 32.6151C24.6552 32.7287 25.026 32.8056 25.4079 32.8745C25.4743 32.8716 25.5403 32.8701 25.6064 32.8685C25.7405 32.8654 25.8746 32.8622 26.0114 32.848C26.1944 32.8253 26.3811 32.7863 26.5634 32.7344C27.8648 32.3474 28.9328 31.0698 29.038 29.78C29.1132 28.8493 28.758 28.1321 28.1549 27.5379C27.4317 26.8276 27.0287 25.9438 26.8824 24.9199C26.809 24.4333 26.6601 23.9883 26.3593 23.618C26.2526 23.4847 26.1326 23.3696 26.0022 23.273C25.9814 23.2575 25.9607 23.2424 25.9392 23.228C25.6784 23.0508 25.3783 22.944 25.0556 22.9088Z"
                    fill="#262626"
                  />
                  <path
                    fill-rule="evenodd"
                    clip-rule="evenodd"
                    d="M26.6082 0.0280762C26.2235 0.0280762 25.8809 0.277252 25.7577 0.646428L25.0383 2.81257C24.979 2.99066 24.8139 3.11105 24.628 3.11105H16.5718C15.5869 3.11105 14.7126 3.74698 14.3983 4.69094L0.629134 46.1285C0.256983 47.2495 1.08138 48.4093 2.24997 48.4093H33.073C34.4172 48.4093 35.6108 47.5411 36.0392 46.2528L49.6961 5.15184C49.7498 4.99171 49.7755 4.83005 49.7774 4.67221V4.64164C49.7694 3.8257 49.1136 3.11105 48.2453 3.11105H39.1282C38.973 3.11105 38.8634 2.95665 38.9129 2.80722L39.571 0.827194C39.7014 0.434706 39.4131 0.0280762 39.0032 0.0280762H26.6082ZM39.1282 9.99585C39.3103 9.99585 39.4713 9.87776 39.5283 9.70311L40.335 7.22588C40.3682 7.12537 40.4608 7.05772 40.5655 7.05772H43.6919C43.8566 7.05772 43.9734 7.21976 43.9224 7.37798L34.1422 37.8775L30.0731 36.7749C29.5948 36.666 29.0995 36.7784 28.7126 37.0814C28.3446 37.3692 28.1168 37.7961 28.0801 38.2623L27.0445 43.7327H5.92876L17.6233 7.26448C17.6626 7.14103 17.7763 7.05772 17.9048 7.05772H20.3058C20.5076 7.05772 20.65 7.25721 20.5869 7.45059L19.897 9.56897C19.8282 9.77916 19.9835 9.99585 20.2019 9.99585H39.1282ZM29.6911 38.5203L29.6821 38.4397L29.6847 38.3758L33.0938 39.2999L28.8599 42.9111L29.6911 38.5203Z"
                    fill="#262626"
                  />
                </svg>